<?xml version="1.0" encoding="UTF-8" standalone="no"?>
<svg
   height="19.783319"
   viewBox="0 0 35.999502 33.817642"
   width="21.05971"
   version="1.1"
   id="svg50"
   sodipodi:docname="logo-light.svg"
   inkscape:version="1.3.2 (091e20ef0f, 2023-11-25, custom)"
   xmlns:inkscape="http://www.inkscape.org/namespaces/inkscape"
   xmlns:sodipodi="http://sodipodi.sourceforge.net/DTD/sodipodi-0.dtd"
   xmlns="http://www.w3.org/2000/svg"
   xmlns:svg="http://www.w3.org/2000/svg">
  <defs
     id="defs50" />
  <sodipodi:namedview
     id="namedview50"
     pagecolor="#505050"
     bordercolor="#ffffff"
     borderopacity="1"
     inkscape:showpageshadow="0"
     inkscape:pageopacity="0"
     inkscape:pagecheckerboard="1"
     inkscape:deskcolor="#d1d1d1"
     inkscape:zoom="11.066957"
     inkscape:cx="48.342106"
     inkscape:cy="10.978628"
     inkscape:window-width="1918"
     inkscape:window-height="1176"
     inkscape:window-x="0"
     inkscape:window-y="22"
     inkscape:window-maximized="1"
     inkscape:current-layer="svg50" />
  <g
     fill="none"
     fill-rule="evenodd"
     id="g50"
     transform="translate(-2.5422505e-4,-3.6010315e-4)">
    <path
       d="m 33.46,30.506 c 0,-1.828 -7.087,-3.311 -15.828,-3.311 -8.741,0 -15.828,1.483 -15.828,3.311 0,1.83 7.087,3.312 15.828,3.312 8.74,0 15.827,-1.483 15.827,-3.312"
       fill="#dde2f8"
       id="path3" />
    <path
       d="m 35.936,14.11 c -0.038,0.212 -0.09,0.42 -0.152,0.627 -0.066,0.217 -0.14,0.433 -0.216,0.646 a 26.01,26.01 0 0 1 -0.761,1.822 l -0.002,0.002 c -0.064,0.132 -0.126,0.264 -0.188,0.396 a 54.73,54.73 0 0 1 -1.377,2.629 l -0.32,0.575 a 73.448,73.448 0 0 1 -2.521,4.159 47.27,47.27 0 0 1 -1.868,2.695 c -0.242,0.323 -0.49,0.638 -0.746,0.948 -0.004,0.003 -0.006,0.007 -0.006,0.007 -0.04,0.05 -0.083,0.1 -0.124,0.148 -0.321,0.386 -0.66,0.772 -1.048,1.095 -0.407,0.339 -0.905,0.543 -1.398,0.734 -1.67,0.655 -3.488,0.885 -5.272,0.977 -2.44,0.125 -4.897,-0.016 -7.287,-0.532 -0.928,-0.201 -1.852,-0.457 -2.723,-0.835 A 2,2 0 0 1 9.693,30.086 C 9.656,30.064 9.617,30.043 9.581,30.018 A 2.805,2.805 0 0 1 9.365,29.866 L 9.271,29.79 9.249,29.771 A 3.58,3.58 0 0 1 9.076,29.617 7.129,7.129 0 0 1 8.666,29.194 16.24,16.24 0 0 1 8.322,28.794 L 8.242,28.697 A 0.87,0.87 0 0 1 8.181,28.624 2.506,2.506 0 0 1 8.116,28.546 C 8.093,28.521 8.074,28.496 8.053,28.47 L 7.946,28.342 A 32.73,32.73 0 0 1 6.136,25.87 L 6.135,25.866 A 64.662,64.662 0 0 1 4.648,23.533 C 4.148,22.719 3.661,21.897 3.193,21.063 A 59.486,59.486 0 0 1 1.641,18.136 61.428,61.428 0 0 1 1.271,17.364 C 1.037,16.864 0.814,16.359 0.611,15.846 0.387,15.285 0.173,14.706 0.07,14.109 0.02,13.829 0.455,13.71 0.504,13.992 c 0.004,0.02 0.01,0.04 0.013,0.06 0,0 35.467,-0.222 35.419,0.057"
       fill="#8090ff"
       id="path4" />
    <path
       d="m 34.805,17.207 -0.189,0.396 a 53.907,53.907 0 0 1 -1.376,2.628 l -0.32,0.577 a 73.426,73.426 0 0 1 -2.521,4.157 47.29,47.29 0 0 1 -1.869,2.696 c -0.24,0.324 -0.489,0.637 -0.746,0.948 l -0.005,0.007 c -0.04,0.05 -0.083,0.1 -0.123,0.148 -0.323,0.387 -0.66,0.77 -1.049,1.094 -0.407,0.34 -0.905,0.544 -1.399,0.735 -1.669,0.655 -3.487,0.885 -5.27,0.977 -2.44,0.125 -4.898,-0.017 -7.288,-0.533 -0.928,-0.2 -1.852,-0.457 -2.723,-0.834 A 2.15,2.15 0 0 1 9.693,30.086 C 9.656,30.064 9.617,30.042 9.581,30.017 A 2.727,2.727 0 0 1 9.365,29.866 L 9.271,29.79 A 5.668,5.668 0 0 1 8.667,29.194 C 8.557,29.069 8.45,28.944 8.347,28.822 L 8.322,28.795 8.242,28.697 A 1.356,1.356 0 0 1 8.18,28.624 2.506,2.506 0 0 1 8.115,28.546 L 8.053,28.47 A 5.13,5.13 0 0 0 7.946,28.342 L 7.93,28.322 C 20.275,27.599 32.25,21.1 34.805,17.207"
       fill="#5165f7"
       id="path5" />
    <path
       d="m 35.936,14.11 c -0.038,0.212 -0.09,0.42 -0.152,0.627 -0.066,0.217 -0.088,0.459 -0.216,0.646 -2.58,3.73 -9.013,5.695 -17.873,6.44 -6.45,0.54 -12.16,0.18 -14.502,-0.76 A 59.486,59.486 0 0 1 1.641,18.136 61.428,61.428 0 0 1 1.271,17.364 C 1.037,16.864 0.814,16.359 0.611,15.846 0.387,15.285 0.173,14.706 0.07,14.109 0.02,13.829 0.455,13.71 0.504,13.992 c 0.004,0.02 0.01,0.04 0.013,0.06 0,0 35.467,-0.222 35.419,0.057"
       fill="#9fafff"
       id="path6" />
    <path
       d="m 10.063,18.345 c 4.484,0.632 9.06,0.937 13.586,0.607 3.665,-0.267 7.88,-0.832 11.163,-3.344 0.384,-0.294 0.867,-0.893 1.009,-1.355 0.264,-0.855 -2.014,-3.7 -17.356,-4.167 -7.485,-0.228 -14.923,0.928 -17.59,2.726 -1.923,1.296 0.53,2.636 1.579,3.225 1.414,0.795 3,1.271 4.576,1.664 1.003,0.25 2.008,0.5 3.033,0.644"
       fill="#1841d3"
       id="path7" />
    <path
       d="m 10.02,18.497 c 3.784,0.53 7.608,0.836 11.432,0.724 3.188,-0.093 6.502,-0.359 9.526,-1.415 a 15.456,15.456 0 0 0 2.139,-0.926 c 0.674,-0.358 1.372,-0.765 1.943,-1.273 0.38,-0.339 0.815,-0.842 0.925,-1.348 a 0.678,0.678 0 0 0 0.004,-0.261 c -0.08,-0.498 -0.547,-0.883 -0.94,-1.157 -0.913,-0.637 -2.026,-1.01 -3.092,-1.313 -2.036,-0.581 -4.15,-0.892 -6.254,-1.125 A 80.604,80.604 0 0 0 15.426,9.911 c -3.363,0.06 -6.765,0.347 -10.05,1.085 -1.202,0.27 -2.404,0.603 -3.528,1.108 -0.784,0.352 -2.086,0.973 -1.81,2.015 0.129,0.49 0.55,0.873 0.94,1.175 0.424,0.325 0.888,0.594 1.355,0.857 1.54,0.862 3.243,1.353 4.955,1.777 0.904,0.224 1.81,0.435 2.733,0.569 0.202,0.028 0.29,-0.275 0.085,-0.304 C 9.2,18.063 8.31,17.856 7.423,17.637 A 32.062,32.062 0 0 1 4.91,16.931 C 3.615,16.496 2.304,15.903 1.214,15.078 c -0.373,-0.284 -0.86,-0.69 -0.892,-1.19 -0.033,-0.548 0.549,-0.906 0.97,-1.15 0.918,-0.527 1.95,-0.862 2.97,-1.14 2.998,-0.822 6.144,-1.157 9.244,-1.308 3.433,-0.169 6.884,-0.04 10.308,0.246 2.307,0.193 4.62,0.47 6.876,0.992 1.243,0.287 2.511,0.639 3.638,1.245 0.501,0.27 1.05,0.617 1.29,1.103 0.015,0.028 0.017,0.023 0.035,0.088 0.01,0.035 0.02,0.07 0.025,0.106 -0.007,-0.04 0.003,0.028 0.002,0.061 -0.003,0.074 0.01,-0.004 -0.006,0.053 -0.153,0.588 -0.677,1.097 -1.157,1.448 -0.611,0.448 -1.267,0.838 -1.95,1.174 -2.697,1.325 -5.743,1.75 -8.72,1.974 -3.658,0.276 -7.335,0.146 -10.98,-0.243 a 85.982,85.982 0 0 1 -2.76,-0.344 c -0.203,-0.028 -0.29,0.275 -0.086,0.304"
       fill="#1841d3"
       id="path8" />
    <path
       d="m 28.963,11.875 c 2.168,0.429 4.627,1.161 5.537,1.986 0.786,0.71 -0.849,1.693 -2.32,2.254 -5.046,1.925 -9.1,2.376 -14.472,2.26 C 14.283,18.301 9.335,17.452 6.912,16.91 4.687,16.412 1.386,15.002 1.297,13.84 c 0.09,-1.1 5.053,-2.5 8.907,-2.868 4.675,-0.446 10.54,-0.723 18.759,0.903"
       fill="#ffffff"
       id="path9" />
    <path
       d="m 1.795,17.53 c 1.357,0.87 2.927,1.363 4.44,1.9 C 6.43,19.5 6.514,19.196 6.32,19.127 4.832,18.599 3.292,18.113 1.957,17.259 1.783,17.149 1.622,17.421 1.795,17.531 M 2.69,19.43 c 2.53,1.233 5.351,1.993 8.145,2.363 0.202,0.027 0.29,-0.276 0.085,-0.303 C 8.156,21.124 5.356,20.378 2.852,19.159 2.667,19.069 2.504,19.34 2.69,19.43 m 4.883,0.348 c 1.318,0.322 2.655,0.563 4,0.751 0.2,0.03 0.288,-0.274 0.085,-0.303 a 41.048,41.048 0 0 1 -4,-0.751 c -0.2,-0.049 -0.286,0.254 -0.085,0.303"
       fill="#5165f7"
       id="path10" />
    <path
       d="m 18.138,12.172 0.194,-0.12 a 0.2,0.2 0 0 0 0.075,-0.067 0.208,0.208 0 0 0 0.048,-0.09 0.196,0.196 0 0 0 0.005,-0.103 0.194,0.194 0 0 0 -0.033,-0.098 l -0.041,-0.053 a 0.263,0.263 0 0 0 -0.118,-0.068 l -0.071,-0.01 A 0.279,0.279 0 0 0 18.062,11.6 l -0.194,0.12 a 0.19,0.19 0 0 0 -0.075,0.066 0.19,0.19 0 0 0 -0.048,0.09 0.2,0.2 0 0 0 -0.005,0.104 c 0.001,0.035 0.012,0.068 0.031,0.097 l 0.042,0.054 a 0.271,0.271 0 0 0 0.119,0.067 l 0.07,0.01 a 0.27,0.27 0 0 0 0.136,-0.036 m 1.132,0.829 0.194,-0.119 a 0.2,0.2 0 0 0 0.075,-0.068 0.208,0.208 0 0 0 0.048,-0.089 0.196,0.196 0 0 0 0.004,-0.104 0.194,0.194 0 0 0 -0.032,-0.098 L 19.517,12.47 A 0.263,0.263 0 0 0 19.4,12.403 l -0.072,-0.01 a 0.279,0.279 0 0 0 -0.134,0.036 l -0.195,0.12 a 0.19,0.19 0 0 0 -0.075,0.067 0.19,0.19 0 0 0 -0.048,0.089 0.2,0.2 0 0 0 -0.004,0.105 c 0,0.035 0.011,0.067 0.031,0.097 l 0.042,0.053 a 0.271,0.271 0 0 0 0.119,0.067 l 0.07,0.01 a 0.27,0.27 0 0 0 0.135,-0.036 m 5.664,1.901 0.194,-0.12 a 0.2,0.2 0 0 0 0.075,-0.067 0.208,0.208 0 0 0 0.048,-0.09 0.196,0.196 0 0 0 0.005,-0.103 0.194,0.194 0 0 0 -0.032,-0.098 l -0.042,-0.053 a 0.263,0.263 0 0 0 -0.118,-0.068 l -0.071,-0.01 a 0.279,0.279 0 0 0 -0.135,0.037 l -0.194,0.12 a 0.19,0.19 0 0 0 -0.075,0.066 0.19,0.19 0 0 0 -0.048,0.09 0.2,0.2 0 0 0 -0.004,0.104 c 0,0.035 0.011,0.068 0.03,0.097 0.015,0.019 0.03,0.036 0.043,0.054 a 0.271,0.271 0 0 0 0.118,0.067 l 0.07,0.01 a 0.27,0.27 0 0 0 0.136,-0.036 m 0.627,0.799 0.195,-0.118 a 0.2,0.2 0 0 0 0.075,-0.069 0.208,0.208 0 0 0 0.048,-0.089 0.196,0.196 0 0 0 0.004,-0.104 0.194,0.194 0 0 0 -0.032,-0.097 L 25.809,15.17 a 0.263,0.263 0 0 0 -0.118,-0.067 l -0.071,-0.01 a 0.279,0.279 0 0 0 -0.135,0.036 l -0.194,0.12 a 0.19,0.19 0 0 0 -0.075,0.067 0.19,0.19 0 0 0 -0.048,0.09 0.2,0.2 0 0 0 -0.005,0.104 c 0.001,0.035 0.012,0.067 0.031,0.097 l 0.042,0.053 a 0.271,0.271 0 0 0 0.119,0.068 l 0.07,0.01 a 0.27,0.27 0 0 0 0.136,-0.037"
       fill="#8090ff"
       id="path11" />
    <path
       d="m 16.945,7.282 a 1.203,1.203 0 0 1 -0.246,0.44 c -0.29,0.43 -0.731,0.967 -1.142,1.068 -0.791,0.194 -1.989,-0.197 -2.805,-0.797 -0.49,-0.362 -1.042,-0.984 -1.11,-1.46 -0.087,-0.61 0.133,-1.372 0.53,-1.9 0.07,-0.091 0.141,-0.175 0.22,-0.25 L 12.598,4.2 c 0.023,-0.022 0.045,-0.044 0.068,-0.063 l 0.011,-0.009 h 0.002 c 0.272,-0.208 0.62,-0.287 1.1,-0.213 1.196,0.028 2.285,0.82 2.888,1.88 0.036,0.064 0.07,0.128 0.101,0.196 0.195,0.403 0.31,0.86 0.177,1.29"
       fill="#ffe2a9"
       id="path12" />
    <path
       d="M 11.133,2.804 10.531,1.741 C 10.463,1.621 10.285,1.571 10.165,1.648 a 0.263,0.263 0 0 0 -0.096,0.358 l 0.602,1.063 c 0.068,0.12 0.246,0.17 0.365,0.094 A 0.265,0.265 0 0 0 11.133,2.804 M 12.55,2.062 12.476,1.045 C 12.466,0.908 12.36,0.776 12.208,0.782 12.072,0.788 11.93,0.898 11.941,1.045 l 0.074,1.017 c 0.01,0.136 0.116,0.269 0.267,0.262 0.136,-0.006 0.278,-0.116 0.267,-0.262 M 10.168,3.78 A 6.661,6.661 0 0 0 8.788,3.367 C 8.651,3.343 8.493,3.404 8.459,3.55 8.429,3.678 8.499,3.846 8.646,3.873 a 6.328,6.328 0 0 1 0.973,0.254 l 0.16,0.059 0.069,0.027 c 0.009,0.003 0.1,0.04 0.05,0.019 0.07,0.029 0.13,0.047 0.206,0.027 a 0.277,0.277 0 0 0 0.16,-0.12 c 0.06,-0.113 0.041,-0.303 -0.096,-0.36"
       fill="#ed9f00"
       id="path13" />
    <path
       d="m 20.504,15.28 a 1.35,1.35 0 0 1 -0.456,0.651 c -0.588,0.455 -1.407,0.42 -2.114,0.382 -0.177,-0.011 -0.393,-0.016 -0.57,-0.087 a 0.563,0.563 0 0 1 -0.169,-0.102 c -0.185,-0.168 -0.138,-0.41 -0.014,-0.597 a 0.228,0.228 0 0 1 0.058,-0.061 c 0.116,-0.119 0.262,-0.185 0.407,-0.276 0.126,-0.079 0.22,-0.189 0.322,-0.294 0.24,-0.248 0.504,-0.496 0.821,-0.648 0.162,-0.077 0.33,-0.13 0.51,-0.144 0.174,-0.014 0.356,0.026 0.527,0.054 0.247,0.039 0.522,0.105 0.664,0.328 a 0.679,0.679 0 0 1 0.038,0.07 c 0.098,0.223 0.05,0.507 -0.024,0.725"
       fill="#ffe2a9"
       id="path14" />
    <path
       d="m 20.504,15.28 a 1.35,1.35 0 0 1 -0.456,0.651 c -0.588,0.455 -1.407,0.42 -2.114,0.382 -0.177,-0.011 -0.393,-0.016 -0.57,-0.087 1.562,-0.402 1.925,-1.471 3.164,-1.67 0.098,0.223 0.05,0.507 -0.024,0.725"
       fill="#e8c079"
       id="path15" />
    <path
       d="m 21.334,15.994 c 0.086,0.257 0.24,0.484 0.457,0.65 0.587,0.455 1.406,0.42 2.114,0.382 0.176,-0.011 0.392,-0.016 0.568,-0.087 a 0.563,0.563 0 0 0 0.17,-0.102 c 0.185,-0.168 0.138,-0.41 0.014,-0.597 A 0.228,0.228 0 0 0 24.599,16.179 C 24.483,16.06 24.337,15.994 24.192,15.903 24.066,15.824 23.972,15.714 23.87,15.609 23.63,15.361 23.366,15.113 23.05,14.961 a 1.416,1.416 0 0 0 -0.51,-0.144 c -0.175,-0.014 -0.356,0.026 -0.527,0.054 -0.247,0.039 -0.522,0.105 -0.665,0.328 a 0.679,0.679 0 0 0 -0.038,0.07 c -0.098,0.222 -0.049,0.507 0.024,0.725"
       fill="#ffe2a9"
       id="path16" />
    <path
       d="m 21.334,15.994 c 0.086,0.257 0.24,0.484 0.457,0.65 0.587,0.455 1.406,0.42 2.114,0.382 0.176,-0.011 0.392,-0.016 0.568,-0.087 -1.56,-0.402 -1.924,-1.471 -3.163,-1.67 -0.098,0.222 -0.049,0.507 0.024,0.725"
       fill="#e8c079"
       id="path17" />
    <path
       d="M 22.285,3.255 A 1.67,1.67 0 0 1 20.833,4.878 C 20.126,4.97 19.409,4.6 19.103,3.963 18.85,3.438 18.943,2.941 19.154,2.427 c 0.328,-0.8 0.765,-1.566 1.227,-2.3 a 0.274,0.274 0 0 1 0.462,0 c 0.257,0.41 0.499,0.83 0.726,1.256 0.183,0.34 0.354,0.687 0.5,1.044 0.086,0.21 0.17,0.43 0.202,0.657 l 0.014,0.17 A 0.285,0.285 0 0 0 22.273,3.161 l 0.006,0.094 -0.004,0.084 0.003,-0.012 z"
       fill="#83c7ff"
       id="path18" />
    <path
       d="m 21.191,3.33 a 0.762,0.762 0 0 1 -0.008,0.11 l 0.01,-0.07 a 0.79,0.79 0 0 1 -0.054,0.196 l 0.027,-0.062 a 0.81,0.81 0 0 1 -0.107,0.18 l 0.042,-0.053 a 0.842,0.842 0 0 1 -0.15,0.147 l 0.054,-0.04 A 0.82,0.82 0 0 1 20.82,3.842 l 0.064,-0.026 a 0.832,0.832 0 0 1 -0.2,0.053 l 0.07,-0.01 a 0.81,0.81 0 0 1 -0.112,0.008 c -0.14,10e-4 -0.274,0.12 -0.267,0.262 a 0.268,0.268 0 0 0 0.267,0.262 1.11,1.11 0 0 0 0.767,-0.31 C 21.611,3.882 21.725,3.609 21.726,3.329 A 0.267,0.267 0 0 0 21.459,3.067 c -0.145,0.006 -0.267,0.115 -0.268,0.262"
       fill="#187eb7"
       id="path19" />
    <path
       d="m 34.21,10.675 c -0.136,0.697 -0.408,1.425 -0.882,1.963 -1.59,1.816 -3.188,2.797 -5.474,3.14 -0.278,0.066 -0.45,0.004 -0.548,-0.062 a 0.371,0.371 0 0 1 -0.107,-0.105 9.501,9.501 0 0 1 -0.417,-4.83 c 0.14,-0.8 0.394,-1.604 0.902,-2.248 0.51,-0.644 1.306,-1.107 2.136,-1.07 0.402,0.02 0.78,0.15 1.15,0.307 0.392,0.165 0.78,0.362 1.183,0.492 0.474,0.153 0.992,0.221 1.397,0.506 0.59,0.412 0.797,1.21 0.66,1.907 M 9.564,12.618 c 0.18,0.264 0.247,0.72 0.07,0.988 -0.177,0.267 -0.588,0.56 -0.954,0.445 -0.024,0.327 -0.252,1.091 -0.951,1.201 -0.33,0.054 -0.67,-0.063 -0.927,-0.274 -0.002,0 -0.004,-0.002 -0.006,-0.004 -0.233,0.283 -0.733,0.282 -1.165,0.083 -0.242,-0.112 -0.786,-0.634 -0.679,-1.16 -0.27,0.279 -0.92,0.225 -1.273,-0.032 -0.288,-0.207 -0.341,-0.7 -0.269,-0.978 0.083,-0.33 0.263,-0.564 0.505,-0.724 l -0.07,-0.014 c 0,0 -0.122,-0.19 -0.118,-0.463 A 0.92,0.92 0 0 1 3.843,11.251 L 5.413,10.579 6.451,8.956 6.638,8.666 A 0.842,0.842 0 0 1 7.188,8.209 C 7.448,8.133 7.74,8.149 7.978,8.195 8.428,8.281 8.692,8.806 8.608,9.249 9.043,9.052 9.69,9.2 9.928,9.606 c 0.242,0.406 0.115,0.985 -0.276,1.257 0.185,-0.038 0.74,0.144 0.865,0.484 0.26,0.706 -0.367,1.459 -0.953,1.27"
       fill="#ff5a5a"
       id="path20" />
    <path
       d="m 9.563,12.618 c 0.182,0.264 0.248,0.72 0.072,0.988 -0.177,0.267 -0.589,0.56 -0.956,0.446 -0.023,0.325 -0.252,1.09 -0.95,1.2 C 7.399,15.306 7.059,15.189 6.802,14.978 6.924,14.814 7.09,14.677 7.257,14.555 7.335,14.499 7.419,14.44 7.457,14.353 7.519,14.21 7.44,14.052 7.438,13.896 7.433,13.589 7.719,13.363 7.981,13.196 8.241,13.028 8.536,12.826 8.569,12.52 8.597,12.244 8.396,12.003 8.225,11.782 8.053,11.562 7.894,11.272 8.008,11.017 8.086,10.844 8.275,10.74 8.35,10.565 8.438,10.365 8.345,10.123 8.183,9.975 8.02,9.827 7.803,9.753 7.588,9.698 7.373,9.643 7.151,9.602 6.958,9.499 A 1.13,1.13 0 0 1 6.451,8.957 L 6.638,8.665 c 0.253,-0.537 0.89,-0.556 1.34,-0.47 0.449,0.087 0.714,0.61 0.63,1.054 0.435,-0.198 1.081,-0.05 1.32,0.357 0.243,0.406 0.116,0.984 -0.276,1.257 0.184,-0.038 0.74,0.144 0.864,0.484 0.26,0.706 -0.367,1.458 -0.953,1.271"
       fill="#ef4848"
       id="path21" />
    <path
       d="m 6.368,11.33 a 1.397,1.397 0 0 0 -0.828,1.217 1.396,1.396 0 0 0 0.74,1.247 c 0.512,0.26 1.206,0.17 1.534,-0.33 0.144,-0.219 0.182,-0.517 0.168,-0.77 A 1.927,1.927 0 0 0 7.787,11.937 1.272,1.272 0 0 0 7.279,11.392 1.136,1.136 0 0 0 6.432,11.304 C 6.1,11.39 6.241,11.897 6.574,11.809 a 0.59,0.59 0 0 1 0.411,0.022 c 0.131,0.068 0.21,0.15 0.282,0.266 0.174,0.277 0.238,0.668 0.14,0.983 A 0.474,0.474 0 0 1 7.127,13.368 0.681,0.681 0 0 1 6.604,13.366 0.873,0.873 0 0 1 6.078,12.64 0.816,0.816 0 0 1 6.216,12.125 C 6.316,11.97 6.456,11.861 6.638,11.782 6.771,11.725 6.801,11.536 6.735,11.424 6.655,11.29 6.501,11.273 6.368,11.33"
       fill="#d81d1d"
       id="path22" />
    <path
       d="m 7.364,10.965 c 0.01,-0.02 0.022,-0.037 0.034,-0.056 -0.04,0.06 0.007,-0.002 0.021,-0.015 l 0.03,-0.026 c -0.026,0.02 -0.027,0.021 -0.002,0.004 0.025,-0.015 0.05,-0.031 0.077,-0.045 a 0.942,0.942 0 0 1 0.047,-0.02 c 0.033,-0.01 0.065,-0.02 0.1,-0.028 0.01,-0.003 0.106,-0.017 0.063,-0.013 L 7.82,10.761 a 0.94,0.94 0 0 1 0.408,0.087 c 0.062,0.03 0.118,0.064 0.176,0.1 0.025,0.017 0.027,0.017 0.004,0 l 0.038,0.03 a 1.2,1.2 0 0 1 0.06,0.056 c 0.02,0.02 0.038,0.04 0.056,0.062 -0.036,-0.042 0.023,0.033 0.03,0.042 0.017,0.027 0.033,0.055 0.048,0.083 0.005,0.01 0.042,0.096 0.025,0.053 0.022,0.057 0.04,0.116 0.05,0.176 -0.01,-0.065 0,0.03 0,0.043 v 0.081 a 1.026,1.026 0 0 1 -0.021,0.125 l -0.029,0.088 a 0.829,0.829 0 0 1 -0.02,0.04 C 8.632,11.853 8.616,11.877 8.6,11.902 a 0.467,0.467 0 0 1 -0.055,0.054 c 0.027,-0.02 0.03,-0.021 0.006,-0.004 -0.024,0.012 -0.046,0.025 -0.071,0.035 -0.132,0.057 -0.163,0.248 -0.096,0.36 0.08,0.133 0.233,0.15 0.367,0.094 0.241,-0.104 0.394,-0.361 0.458,-0.602 A 1.198,1.198 0 0 0 9.14,11.036 C 8.894,10.479 8.235,10.171 7.635,10.254 c -0.282,0.04 -0.598,0.187 -0.733,0.447 -0.066,0.126 -0.034,0.285 0.095,0.359 0.12,0.068 0.3,0.032 0.367,-0.095 M 7.189,8.209 C 7.163,8.474 7.18,9.527 6.455,10.629 5.717,11.757 4.267,11.634 3.727,11.686 A 0.927,0.927 0 0 1 3.843,11.251 L 5.413,10.579 6.45,8.957 6.638,8.666 A 0.838,0.838 0 0 1 7.189,8.209"
       fill="#d81d1d"
       id="path23" />
    <path
       d="M 6.285,6.685 C 6.28,6.409 6.64,6.35 6.785,6.553 c 0.396,0.56 0.374,1.3 0.208,1.941 L 6.972,8.565 6.94,8.692 6.88,8.872 6.812,9.045 C 6.457,9.96 5.891,10.784 4.936,11.192 4.369,11.435 3.731,11.511 3.116,11.488 2.476,11.463 1.883,11.225 1.522,10.69 c -0.183,-0.271 0.202,-0.488 0.42,-0.318 0.133,0.103 0.284,-0.024 0.445,-0.2 L 2.599,9.93 C 2.671,9.85 2.745,9.775 2.819,9.72 A 0.974,0.974 0 0 1 3.434,9.502 H 3.616 A 2.123,2.123 0 0 0 3.507,9.352 L 3.35,9.16 A 3.685,3.685 0 0 0 3.164,8.964 L 3.068,8.874 C 2.68,8.531 2.47,8.112 2.488,7.594 2.492,7.44 2.658,7.274 2.826,7.34 3.002,7.41 3.186,7.446 3.372,7.469 l 0.56,0.057 c 0.185,0.023 0.369,0.057 0.545,0.125 0.222,0.085 0.417,0.207 0.564,0.367 l 0.034,0.04 0.01,-0.01 0.013,-0.015 C 5.245,7.859 5.42,7.713 5.625,7.567 L 5.823,7.426 C 6.08,7.238 6.293,7.04 6.286,6.684 Z"
       fill="#17cfe2"
       id="path24" />
    <path
       d="m 15.084,15.73 c -0.631,0.216 -1.34,0.171 -1.961,-0.066 C 12.9,15.579 12.689,15.468 12.47,15.372 a 9.618,9.618 0 0 0 -0.822,-0.324 4.713,4.713 0 0 0 -0.406,-0.123 c 0.208,-0.221 0.437,-0.567 0.484,-0.863 0.038,-0.24 0.019,-0.485 0.035,-0.727 0.043,-0.647 0.37,-1.27 0.88,-1.683 a 2.504,2.504 0 0 1 1.852,-0.531 3.35,3.35 0 0 1 1.075,0.342 c 0.153,0.075 0.304,0.158 0.438,0.262 0.1,0.071 0.19,0.155 0.27,0.25 0.056,0.067 0.103,0.14 0.143,0.218 l 0.015,-0.008 c 0.38,0.73 0.447,1.676 0.238,2.257 -0.22,0.616 -0.956,1.073 -1.588,1.288 z"
       fill="#efb26a"
       id="path25" />
    <path
       d="m 16.97,14.223 c -0.13,0.679 -0.655,1.166 -1.256,1.48 a 3.19,3.19 0 0 1 -2.27,0.298 c -0.405,-0.1 -0.772,-0.294 -1.15,-0.46 a 7.433,7.433 0 0 0 -1.112,-0.4 c -0.287,-0.074 -0.166,-0.508 0.122,-0.434 0.197,0.05 0.387,0.117 0.572,0.19 0.33,-0.333 0.875,-0.192 1.493,-0.263 0.542,-0.06 1.509,-0.303 1.905,-0.671 0.396,-0.365 0.52,-0.711 0.505,-1.244 -0.008,-0.227 -0.077,-0.403 -0.032,-0.623 0.022,-0.101 0.2,-0.287 0.259,-0.37 0.101,0.07 0.191,0.153 0.27,0.249 0.01,0.011 0.017,0.023 0.026,0.036 0.101,-0.08 0.256,-0.084 0.33,0.06 0.014,0.027 0.028,0.056 0.04,0.084 0.302,0.638 0.428,1.373 0.297,2.068"
       fill="#e59e51"
       id="path26" />
    <path
       d="m 16.587,12.02 c -0.265,-0.445 -0.755,-0.704 -1.226,-0.895 -1.01,-0.412 -2.173,-0.289 -2.99,0.459 -0.406,0.371 -0.693,0.88 -0.797,1.415 -0.058,0.3 -0.034,0.6 -0.06,0.902 -0.027,0.317 -0.194,0.591 -0.403,0.828 a 0.197,0.197 0 0 0 -0.084,0.129 l -0.003,0.013 a 0.226,0.226 0 0 0 0.029,0.162 c 0.006,0.01 0.012,0.02 0.02,0.028 0.003,0.006 0.008,0.011 0.013,0.017 l 0.016,0.015 0.011,0.01 c 0.047,0.038 0.106,0.06 0.166,0.05 0.518,0.043 1.018,0.21 1.535,0.263 a 4.287,4.287 0 0 0 1.776,-0.163 c 0.93,-0.3 1.884,-0.88 2.15,-1.863 0.121,-0.452 0.09,-0.96 -0.153,-1.37"
       fill="#ffc98f"
       id="path27" />
    <path
       d="m 12.562,14.024 0.507,-1.08 c 0.07,-0.149 0.141,-0.3 0.252,-0.422 0.355,-0.394 0.993,-0.382 1.438,-0.676 0.033,0.352 0.066,0.71 -0.002,1.058 -0.069,0.347 -0.254,0.689 -0.566,0.867 a 1.685,1.685 0 0 1 -0.464,0.162 c -0.374,0.086 -0.783,0.04 -1.165,0.091"
       fill="#ffddbb"
       id="path28" />
    <path
       d="m 12.793,14.157 0.408,-0.869 c 0.11,-0.234 0.203,-0.523 0.421,-0.685 0.15,-0.113 0.36,-0.174 0.563,-0.237 0.244,-0.076 0.493,-0.154 0.71,-0.293 l -0.403,-0.227 c 0.048,0.52 0.124,1.172 -0.28,1.578 -0.179,0.18 -0.46,0.254 -0.713,0.285 -0.31,0.037 -0.626,0.014 -0.937,0.053 -0.143,0.018 -0.267,0.108 -0.267,0.262 0,0.128 0.123,0.28 0.267,0.263 0.688,-0.086 1.493,0.046 2.028,-0.493 0.519,-0.521 0.5,-1.273 0.437,-1.948 -0.018,-0.184 -0.218,-0.345 -0.403,-0.227 -0.418,0.27 -0.972,0.286 -1.38,0.613 -0.237,0.19 -0.354,0.469 -0.478,0.734 -0.146,0.309 -0.29,0.618 -0.434,0.926 -0.061,0.128 -0.038,0.282 0.095,0.359 0.116,0.066 0.306,0.035 0.366,-0.094"
       fill="#ffddbb"
       id="path29" />
    <path
       d="m 12.744,13.846 2.18,-2.121 c 0,0 0.636,0.802 0.09,1.693 -0.545,0.891 -2.133,0.817 -2.455,0.802 -0.323,-0.014 0.185,-0.374 0.185,-0.374"
       fill="#e59e51"
       id="path30" />
    <path
       d="m 34.211,10.675 c -0.136,0.697 -0.409,1.425 -0.882,1.963 -1.592,1.816 -3.19,2.796 -5.476,3.141 -0.277,0.065 -0.45,0.004 -0.548,-0.063 0.818,-0.488 4.992,-3.112 4.231,-5.518 -0.19,-0.602 -0.857,-0.809 -1.403,-1.223 -0.791,-0.606 -1.46,-1.27 -1.015,-1.416 0.259,-0.085 0.537,-0.1 0.76,-0.092 0.254,0.007 0.438,0.045 0.438,0.045 0.39,0.166 1.433,0.619 1.837,0.749 0.473,0.154 0.991,0.222 1.397,0.507 0.311,0.217 0.518,0.544 0.62,0.907 0.093,0.321 0.105,0.672 0.041,1"
       fill="#ef4848"
       id="path31" />
    <path
       d="M 29.36,9.627 29.393,9.456 A 0.197,0.197 0 0 0 29.398,9.352 0.185,0.185 0 0 0 29.366,9.254 0.198,0.198 0 0 0 29.296,9.181 0.197,0.197 0 0 0 29.206,9.133 l -0.07,-0.01 A 0.27,0.27 0 0 0 29,9.16 2.22,2.22 0 0 1 28.946,9.2 0.263,0.263 0 0 0 28.877,9.317 c -0.01,0.057 -0.022,0.113 -0.033,0.17 A 0.2,0.2 0 0 0 28.84,9.592 0.195,0.195 0 0 0 28.87,9.69 c 0.018,0.03 0.041,0.055 0.07,0.073 a 0.215,0.215 0 0 0 0.091,0.047 l 0.072,0.009 a 0.26,0.26 0 0 0 0.134,-0.036 l 0.055,-0.04 A 0.256,0.256 0 0 0 29.36,9.627 m 2.167,1.013 0.24,-0.31 c 0.02,-0.03 0.03,-0.063 0.032,-0.098 A 0.197,0.197 0 0 0 31.795,10.128 0.208,0.208 0 0 0 31.746,10.039 0.2,0.2 0 0 0 31.672,9.971 0.28,0.28 0 0 0 31.465,9.945 l -0.064,0.026 a 0.274,0.274 0 0 0 -0.096,0.094 l -0.24,0.31 a 0.194,0.194 0 0 0 -0.032,0.098 0.197,0.197 0 0 0 0.005,0.104 0.208,0.208 0 0 0 0.048,0.09 0.2,0.2 0 0 0 0.075,0.068 0.275,0.275 0 0 0 0.207,0.026 l 0.063,-0.026 a 0.274,0.274 0 0 0 0.096,-0.095 m -1.73,0.469 -0.094,0.486 a 0.279,0.279 0 0 0 0.027,0.201 0.273,0.273 0 0 0 0.366,0.094 c 0.057,-0.034 0.11,-0.09 0.123,-0.156 l 0.094,-0.485 a 0.281,0.281 0 0 0 -0.027,-0.203 0.277,0.277 0 0 0 -0.16,-0.12 0.277,0.277 0 0 0 -0.206,0.027 c -0.056,0.035 -0.11,0.09 -0.123,0.156 m -1.757,0.832 c -0.109,0.183 -0.198,0.38 -0.268,0.583 a 0.263,0.263 0 0 0 0.027,0.201 0.277,0.277 0 0 0 0.16,0.12 0.28,0.28 0 0 0 0.207,-0.025 0.29,0.29 0 0 0 0.123,-0.158 c 0.022,-0.066 0.048,-0.131 0.075,-0.195 l -0.027,0.062 c 0.048,-0.111 0.103,-0.22 0.165,-0.323 A 0.266,0.266 0 0 0 28.53,12.004 0.273,0.273 0 0 0 28.407,11.847 0.275,0.275 0 0 0 28.2,11.82 0.278,0.278 0 0 0 28.04,11.941 m 2.862,0.283 a 0.944,0.944 0 0 1 -0.02,0.053 l 0.027,-0.063 a 0.628,0.628 0 0 1 -0.08,0.137 l 0.041,-0.053 -0.011,0.014 a 0.193,0.193 0 0 0 -0.056,0.085 0.186,0.186 0 0 0 -0.023,0.1 0.19,0.19 0 0 0 0.023,0.101 c 0.011,0.033 0.03,0.06 0.056,0.085 l 0.054,0.04 a 0.259,0.259 0 0 0 0.134,0.036 l 0.072,-0.009 a 0.272,0.272 0 0 0 0.117,-0.067 0.997,0.997 0 0 0 0.11,-0.15 1.342,1.342 0 0 0 0.073,-0.17 0.2,0.2 0 0 0 0.004,-0.104 0.195,0.195 0 0 0 -0.031,-0.098 0.198,0.198 0 0 0 -0.07,-0.074 0.215,0.215 0 0 0 -0.09,-0.047 L 31.16,12.032 a 0.26,0.26 0 0 0 -0.135,0.035 2.22,2.22 0 0 0 -0.054,0.041 0.256,0.256 0 0 0 -0.069,0.116 m -1.706,0.993 -0.316,0.306 a 0.196,0.196 0 0 0 -0.055,0.084 0.19,0.19 0 0 0 -0.023,0.101 0.19,0.19 0 0 0 0.023,0.102 c 0.01,0.032 0.03,0.06 0.055,0.084 0.051,0.046 0.118,0.08 0.19,0.076 a 0.277,0.277 0 0 0 0.188,-0.076 c 0.106,-0.102 0.21,-0.204 0.317,-0.305 a 0.204,0.204 0 0 0 0.055,-0.085 0.197,0.197 0 0 0 0.022,-0.101 0.194,0.194 0 0 0 -0.022,-0.1 0.193,0.193 0 0 0 -0.055,-0.086 0.271,0.271 0 0 0 -0.379,0"
       fill="#d81d1d"
       id="path32" />
    <path
       d="m 16.945,7.28 a 1.09,1.09 0 0 1 -0.118,0.263 c 0.094,0.06 0.15,0.173 0.07,0.292 a 4.122,4.122 0 0 1 -0.596,0.753 2.246,2.246 0 0 1 -0.209,0.18 C 15.797,8.991 15.458,9.068 15.089,9.066 13.751,9.057 12.197,8.206 11.576,7.024 11.274,6.45 11.381,5.743 11.618,5.163 c 0.201,-0.488 0.507,-0.847 0.896,-1.195 0.22,-0.195 0.545,0.122 0.326,0.32 -0.156,0.14 -0.298,0.28 -0.424,0.433 a 0.474,0.474 0 0 1 0.09,0.088 c 0.126,0.174 0.105,0.404 0.124,0.616 0.038,0.41 0.247,0.792 0.54,1.086 0.293,0.293 0.685,0.463 1.061,0.641 0.616,0.296 1.647,0.22 1.825,-0.044 0.17,-0.25 0.16,-0.842 0.406,-1.022 a 0.518,0.518 0 0 1 0.307,-0.094 c 0.195,0.402 0.309,0.86 0.176,1.289"
       fill="#ed9f00"
       id="path33" />
    <path
       d="m 13.78,3.632 c 0.131,0.003 0.261,0.019 0.39,0.046 l 0.192,0.049 c 0.963,0.207 1.792,0.831 2.349,1.637 0.32,0.466 0.59,1.039 0.557,1.614 -0.032,0.534 -0.33,0.993 -0.788,1.277 -1.006,0.627 -2.262,0.123 -3.17,-0.44 -0.939,-0.584 -1.677,-1.558 -1.489,-2.7 0.076,-0.46 0.333,-0.929 0.718,-1.212 0.245,-0.181 0.524,-0.256 0.814,-0.269 0.13,-0.024 0.271,-0.026 0.426,-0.002 z"
       fill="#ffe2a9"
       id="path34" />
    <path
       d="M 24.1,8.631 C 23.917,8.868 23.742,9.049 23.654,9.052 23.402,9.062 22.537,8.478 22.38,8.339 a 0.31,0.31 0 0 1 -0.1,-0.244 c -0.004,-0.18 0.086,-0.397 0.093,-0.589 0.004,-0.093 0.13,-0.695 0.226,-0.689 0.131,0.007 0.323,0.413 0.38,0.529 0.055,0.115 0.231,0.366 0.361,0.404 0.172,0.05 1.157,-0.24 1.334,-0.258 0.175,-0.016 -0.215,0.672 -0.574,1.14"
       fill="#17cfe2"
       id="path35" />
    <path
       d="M 24.1,8.631 C 23.917,8.868 23.742,9.049 23.654,9.052 23.402,9.062 22.537,8.478 22.38,8.339 A 0.31,0.31 0 0 1 22.28,8.095 C 22.515,7.99 23.134,7.857 24.1,8.631"
       fill="#00a5a5"
       id="path36" />
    <path
       d="m 23.852,11.795 c -0.45,0.456 -1.061,0.805 -1.708,0.848 -1.228,0.084 -2.158,-0.852 -2.511,-1.779 -0.125,-0.335 -0.177,-0.67 -0.14,-0.953 0.068,-0.509 0.351,-0.985 0.77,-1.346 0.756,-0.581 1.488,-0.519 2.173,-0.413 0.668,0.101 1.286,0.53 1.66,1.094 0.17,0.25 0.289,0.53 0.343,0.816 0.117,0.62 -0.14,1.275 -0.587,1.733"
       fill="#cb6dfc"
       id="path37" />
    <path
       d="m 23.852,11.795 c -0.45,0.456 -1.061,0.805 -1.708,0.848 -1.228,0.084 -2.158,-0.852 -2.511,-1.779 a 0.217,0.217 0 0 1 0.057,-0.018 c 0.133,-0.028 0.267,0.032 0.389,0.094 0.238,0.125 0.643,0.202 0.911,0.237 0.828,0.11 1.21,-0.042 1.624,-0.257 0.352,-0.183 0.781,-0.734 0.973,-1.25 0.061,-0.163 0.17,-0.3 0.287,-0.43 0.033,-0.036 0.18,0.032 0.223,0.006 0.17,0.25 0.288,0.53 0.342,0.816 0.117,0.62 -0.14,1.275 -0.587,1.733"
       fill="#b65eef"
       id="path38" />
    <path
       d="m 21.415,11.889 c 0.216,0.07 0.442,0.114 0.668,0.139 0.064,0.007 0.146,-0.034 0.189,-0.076 a 0.26,0.26 0 0 0 0,-0.371 L 22.218,11.54 a 0.273,0.273 0 0 0 -0.135,-0.036 l -0.03,-0.004 0.071,0.01 a 3.203,3.203 0 0 1 -0.566,-0.127 0.28,0.28 0 0 0 -0.207,0.027 0.273,0.273 0 0 0 -0.123,0.157 0.268,0.268 0 0 0 0.187,0.322"
       fill="#6a10c1"
       id="path39" />
    <path
       d="m 13.593,4.966 c 0.181,0.3 0.346,0.61 0.493,0.928 0.05,0.109 0.218,0.143 0.315,0.082 0.113,-0.072 0.136,-0.193 0.082,-0.31 A 9.29,9.29 0 0 0 13.99,4.738 C 13.929,4.637 13.78,4.591 13.676,4.657 c -0.105,0.066 -0.15,0.2 -0.083,0.309 M 14,5.906 A 2.789,2.789 0 0 0 13.054,5.672 c -0.12,-0.008 -0.236,0.11 -0.23,0.226 0.005,0.128 0.1,0.216 0.23,0.225 0.056,0.004 0.112,0.01 0.169,0.017 L 13.161,6.132 a 2.52,2.52 0 0 1 0.563,0.145 c 0.007,0.003 0.015,0.005 0.022,0.009 0.016,0.006 0.009,0.003 -0.02,-0.01 0.014,0.003 0.03,0.014 0.042,0.02 a 0.25,0.25 0 0 0 0.177,0.022 0.237,0.237 0 0 0 0.139,-0.103 c 0.052,-0.099 0.034,-0.258 -0.083,-0.31 m 1.976,0.189 a 7.687,7.687 0 0 1 -0.843,-0.27 0.231,0.231 0 0 0 -0.283,0.158 0.224,0.224 0 0 0 0.023,0.173 0.262,0.262 0 0 0 0.137,0.104 c 0.276,0.106 0.557,0.197 0.844,0.27 0.116,0.03 0.255,-0.038 0.283,-0.157 A 0.229,0.229 0 0 0 15.978,6.094 M 14.38,6.39 c 0.203,0.338 0.439,0.658 0.7,0.956 0.08,0.09 0.246,0.086 0.326,0 0.09,-0.095 0.084,-0.224 0,-0.319 A 5.853,5.853 0 0 1 15.227,6.814 L 15.206,6.788 C 15.186,6.763 15.23,6.819 15.21,6.794 L 15.17,6.74 A 6.168,6.168 0 0 1 14.778,6.162 C 14.716,6.06 14.567,6.015 14.462,6.08 14.357,6.147 14.314,6.28 14.379,6.39"
       fill="#ed9f00"
       id="path40" />
    <path
       d="m 6.01,25.806 c 0.022,0.03 0.044,0.062 0.064,0.094 A 0.171,0.171 0 0 1 6.049,25.87 L 6.047,25.866 C 6.034,25.847 6.021,25.827 6.01,25.806"
       fill="#6e86ff"
       id="path41" />
    <path
       d="m 23.834,22.682 c -1.142,0.126 -2.294,0.174 -3.44,0.256 -0.204,0.014 -0.206,0.33 0,0.315 1.146,-0.082 2.298,-0.13 3.44,-0.256 0.203,-0.022 0.205,-0.337 0,-0.315 m 7.35,-1.932 c -1.854,0.76 -3.764,1.396 -5.751,1.717 -0.203,0.034 -0.117,0.337 0.085,0.304 1.988,-0.322 3.897,-0.958 5.751,-1.718 0.187,-0.077 0.105,-0.38 -0.085,-0.303 m 1.047,0.492 c -2.727,1.297 -5.626,2.222 -8.665,2.425 -0.205,0.013 -0.206,0.328 0,0.314 3.099,-0.207 6.046,-1.145 8.827,-2.468 0.186,-0.088 0.023,-0.36 -0.162,-0.271 m 1.512,-4.125 c -2.304,1.613 -5.032,2.306 -7.802,2.666 -0.202,0.026 -0.205,0.341 0,0.314 2.826,-0.367 5.613,-1.062 7.964,-2.708 0.167,-0.117 0.007,-0.39 -0.162,-0.272"
       fill="#1841d3"
       id="path42" />
    <path
       d="m 33.038,18.56 c -1.34,0.918 -2.916,1.465 -4.488,1.862 -1.85,0.466 -3.754,0.717 -5.66,0.835 -0.204,0.013 -0.206,0.327 0,0.314 1.934,-0.12 3.867,-0.373 5.745,-0.846 1.596,-0.402 3.206,-0.961 4.565,-1.894 0.167,-0.115 0.008,-0.388 -0.162,-0.272 m -1.427,3.865 c -2.885,1.441 -6.008,2.198 -9.244,2.275 -0.207,0.006 -0.208,0.32 0,0.315 a 22.102,22.102 0 0 0 9.406,-2.318 c 0.184,-0.092 0.022,-0.364 -0.162,-0.272 m -1.82,2.814 c -1.23,0.61 -2.618,0.956 -3.96,1.232 -1.6,0.328 -3.253,0.534 -4.89,0.445 -0.207,-0.01 -0.206,0.304 0,0.315 1.664,0.09 3.347,-0.123 4.975,-0.457 1.372,-0.281 2.78,-0.64 4.038,-1.264 0.184,-0.091 0.022,-0.363 -0.163,-0.271 m -0.887,1.343 c -1.192,0.618 -2.615,0.872 -3.929,1.096 -1.642,0.281 -3.315,0.45 -4.982,0.443 -0.207,0 -0.207,0.314 0,0.315 1.696,0.006 3.397,-0.168 5.067,-0.454 1.344,-0.23 2.788,-0.497 4.006,-1.128 0.183,-0.095 0.02,-0.366 -0.162,-0.272 m 1.754,-2.667 c -0.9,0.52 -1.963,0.8 -2.969,1.051 a 27.903,27.903 0 0 1 -4.053,0.71 c -0.683,0.067 -1.37,0.105 -2.056,0.086 -0.207,-0.005 -0.207,0.31 0,0.315 1.31,0.036 2.625,-0.12 3.913,-0.334 1.301,-0.218 2.601,-0.506 3.85,-0.927 0.506,-0.171 1.015,-0.362 1.478,-0.63 0.177,-0.103 0.016,-0.374 -0.163,-0.271 m -4.075,4.41 c -2.963,1.04 -6.125,1.077 -9.237,1.033 -0.206,-0.003 -0.207,0.312 0,0.315 3.139,0.045 6.333,0.005 9.323,-1.045 0.193,-0.068 0.11,-0.371 -0.086,-0.303"
       fill="#1841d3"
       id="path43" />
    <path
       d="M 34.17,9.675 C 33.172,9.906 32.25,9.906 30.777,9.003 30.181,8.638 29.933,7.866 29.878,7.467 c 0.254,0.007 0.439,0.045 0.439,0.045 0.39,0.166 1.433,0.62 1.836,0.749 0.474,0.154 0.992,0.223 1.396,0.507 0.312,0.217 0.518,0.544 0.622,0.907"
       fill="#d81d1d"
       id="path44" />
    <path
       d="M 34.934,9.19 C 34.676,9.47 34.269,9.543 33.901,9.502 A 12.969,12.969 0 0 1 32.363,9.232 C 31.788,9.09 31.163,8.915 30.701,8.534 30.353,8.224 30.078,7.862 29.926,7.424 29.793,7.048 29.734,6.631 29.688,6.237 29.596,5.41 29.873,4.315 30.865,4.167 c 0.484,-0.069 0.871,0.189 1.108,0.559 0.151,0.237 0.24,0.518 0.252,0.79 a 2.78,2.78 0 0 1 -0.08,0.723 c -0.027,0.123 -0.06,0.245 -0.095,0.367 -0.02,0.072 -0.035,0.196 -0.066,0.289 l -0.006,0.015 -0.03,0.062 c -0.001,0.004 -0.001,0.007 -0.003,0.01 h 0.005 c 0.04,-0.023 0.087,-0.033 0.126,-0.058 a 0.89,0.89 0 0 0 0.228,-0.228 c 0.116,-0.156 0.195,-0.334 0.299,-0.497 0.22,-0.346 0.545,-0.61 0.969,-0.664 0.377,-0.05 0.748,0.096 0.968,0.404 a 0.946,0.946 0 0 1 0.165,0.392 0.825,0.825 0 0 1 -0.118,0.581 c -0.19,0.302 -0.532,0.457 -0.848,0.604 -0.095,0.043 -0.202,0.084 -0.282,0.153 -0.07,0.063 -0.086,0.069 -0.025,0.117 0.094,0.075 0.346,0.02 0.457,0.016 0.335,-0.012 0.685,0.06 0.934,0.28 a 0.787,0.787 0 0 1 0.123,0.13 c 0.226,0.293 0.243,0.7 -0.012,0.977"
       fill="#17cfe2"
       id="path45" />
    <path
       d="m 32.225,5.517 c 0.01,0.242 -0.028,0.486 -0.08,0.722 -0.027,0.122 -0.06,0.246 -0.095,0.366 -0.02,0.073 -0.035,0.198 -0.067,0.29 l -0.005,0.016 -0.03,0.061 c 0,0 -0.25,0.406 -0.434,0.225 -0.185,-0.18 0.637,-1.58 0.459,-2.47 0.15,0.235 0.24,0.517 0.252,0.79"
       fill="#00a5a5"
       id="path46" />
    <path
       d="m 16.3,8.588 a 2.145,2.145 0 0 1 -0.208,0.18 c -0.294,0.223 -0.634,0.3 -1.002,0.299 -1.34,-0.01 -2.893,-0.86 -3.514,-2.042 l 0.133,-0.109 c 0,0 0.458,0.823 2.015,1.504 0.835,0.365 1.64,0.439 2.576,0.168"
       fill="#ed9f00"
       id="path47" />
    <path
       d="m 16.97,14.223 c -0.13,0.679 -0.655,1.166 -1.256,1.48 a 3.19,3.19 0 0 1 -2.131,0.327 c 1.431,-0.03 2.472,-0.923 3.006,-1.971 0.37,-0.723 0.18,-1.538 0.083,-1.904 0.302,0.638 0.428,1.373 0.297,2.068"
       fill="#cc823a"
       id="path48" />
    <path
       d="m 27.003,29.494 c -0.127,0.128 -0.257,0.25 -0.395,0.365 -0.408,0.339 -0.905,0.543 -1.399,0.734 -1.67,0.655 -3.488,0.885 -5.271,0.977 -2.44,0.125 -4.898,-0.016 -7.288,-0.533 -0.929,-0.2 -1.851,-0.457 -2.723,-0.834 -0.642,-0.276 -1.139,-0.861 -1.581,-1.381 0.228,0.24 1.874,1.791 6.563,2.122 5.09,0.357 9.303,0.179 12.09,-1.449 z"
       fill="#1841d3"
       id="path49" />
    <path
       d="m 33.596,7.366 c 0.313,-0.168 1.172,-0.572 1.11,-1.002 L 34.705,6.332 a 0.824,0.824 0 0 1 -0.118,0.58 c -0.19,0.302 -0.532,0.457 -0.848,0.604 -0.095,0.043 -0.202,0.085 -0.281,0.153 -0.072,0.063 -0.47,0.251 -0.47,0.07 0,-0.18 0.293,-0.206 0.608,-0.373"
       fill="#00a5a5"
       id="path50" />
  </g>
</svg>
